# xmcd
#
# Track frame offsets:
#	150
#	19017
#	39074
#	55240
#	67076
#	84725
#	101594
#	116926
#	132930
#	151592
#	165528
#	178538
#	192980
#
# Disc length: 2758 seconds
#
# Revision: 1
# Processed by: cddbd v1.5.2PL0 Copyright (c) Steve Scherf et al.
# Submitted via: audiograbber 1.83.01
#
DISCID=a50ac40d
DTITLE=Peter Beense - Vergeet niet te leven
DYEAR=2010
DGENRE=Hollands
TTITLE0=Peter Beense - Ik zou het willen schreeuwen van de toren
TTITLE1=Peter Beense - M'n donkerbruine broeder
TTITLE2=Peter Beense - Moeder
TTITLE3=Peter Beense - Mooi als een orchidee
TTITLE4=Peter Beense - Problemen
TTITLE5=Peter Beense - Tina
TTITLE6=Peter Beense - Want ik heb jou  
TTITLE7=Peter Beense - Daniel
TTITLE8=Peter Beense - Net als vroeger
TTITLE9=Peter Beense - Leven als een rentenier
TTITLE10=Peter Beense - Vergeet niet te leven
TTITLE11=Peter Beense - Huilen om jou
TTITLE12=Peter Beense - Elke man
EXTD=
EXTT0=
EXTT1=
EXTT2=
EXTT3=
EXTT4=
EXTT5=
EXTT6=
EXTT7=
EXTT8=
EXTT9=
EXTT10=
EXTT11=
EXTT12=
PLAYORDER=
